<svg width="240" height="240" viewBox="0 0 240 240" xmlns="http://www.w3.org/2000/svg">
  <defs>
    <!-- glow + rails match your tile palette -->
    <radialGradient id="cg" cx="50%" cy="62%" r="60%">
      <stop offset="0"   stop-color="#7EC3FF" stop-opacity=".58"/>
      <stop offset=".65" stop-color="#2A7FF0" stop-opacity=".20"/>
      <stop offset="1"   stop-color="#0b1119" stop-opacity="0"/>
    </radialGradient>
    <linearGradient id="rail" x1="0" y1="0" x2="1" y2="0">
      <stop offset="0" stop-color="#9BB7FF" stop-opacity=".90"/>
      <stop offset="1" stop-color="#4C6FAE" stop-opacity=".34"/>
    </linearGradient>
    <filter id="soft"><feGaussianBlur stdDeviation="8"/></filter>
  </defs>

  <!-- embedded dome glow -->
  <ellipse cx="120" cy="150" rx="92" ry="76" fill="url(#cg)" filter="url(#soft)"/>

  <!-- scanner rails (mesh/dome) -->
  <g fill="none" stroke="url(#rail)" stroke-linecap="round">
    <path d="M44,168 A96,96 0 0 1 196,168" stroke-width="1.6"/>
    <path d="M56,162 A84,84 0 0 1 184,162" stroke-width="1.35"/>
    <path d="M72,156 A68,68 0 0 1 168,156" stroke-width="1.15"/>
    <path d="M90,150 A50,50 0 0 1 150,150" stroke-width="1.00"/>
  </g>

  <!-- *** corner brackets (exact placement from your photo) *** -->
  <!-- inward-facing L-shapes, soft neon ink -->
  <g fill="none" stroke="rgba(155,183,255,.42)" stroke-width="1.2" stroke-linecap="round">
    <!-- left bracket: ┐ shape opening inward -->
    <path d="M78,132 h16 v16"/>
    <!-- right bracket: ┌ shape opening inward -->
    <path d="M162,132 h-16 v16"/>
  </g>

  <!-- triangulation hints (keep subtle, no cross hair) -->
  <g stroke="url(#rail)" stroke-dasharray="3 3" opacity=".9">
    <path d="M120,150 L98,156"/>
    <path d="M120,150 L152,166"/>
  </g>

  <!-- detections -->
  <g fill="#E6C36B">
    <circle cx="98"  cy="156" r="4"/>
    <circle cx="120" cy="150" r="3.6"/>
    <circle cx="152" cy="166" r="4"/>
  </g>
  <circle cx="120" cy="150" r="8" fill="none" stroke="#E6C36B" stroke-opacity=".45"/>

  <!-- framed chips (AIacquisition-style, but in our palette/type) -->
  <g font-family="Inter, system-ui" font-size="11" fill="#CFE2FF" stroke="rgba(155,183,255,.34)">
    <!-- left chip -->
    <g transform="translate(48,110)">
      <rect x="0" y="0" width="88" height="24" rx="12" fill="none"/>
      <text x="44" y="16" text-anchor="middle">web · 24s</text>
      <!-- pointer stem -->
      <line x1="44" y1="24" x2="44" y2="34" stroke="rgba(155,183,255,.42)"/>
    </g>
    <!-- right chip -->
    <g transform="translate(130,110)">
      <rect x="0" y="0" width="100" height="24" rx="12" fill="none"/>
      <text x="50" y="16" text-anchor="middle">market · 3m</text>
      <line x1="50" y1="24" x2="50" y2="34" stroke="rgba(155,183,255,.42)"/>
    </g>
  </g>
</svg>