<svg width="240" height="240" viewBox="0 0 240 240" xmlns="http://www.w3.org/2000/svg">
  <defs>
    <radialGradient id="cg" cx="50%" cy="62%" r="60%">
      <stop offset="0"  stop-color="#7EC3FF" stop-opacity=".58"/>
      <stop offset=".65" stop-color="#2A7FF0" stop-opacity=".20"/>
      <stop offset="1"  stop-color="#0b1119" stop-opacity="0"/>
    </radialGradient>
    <linearGradient id="rail" x1="0" y1="0" x2="1" y2="0">
      <stop offset="0" stop-color="#9BB7FF" stop-opacity=".9"/>
      <stop offset="1" stop-color="#4C6FAE" stop-opacity=".34"/>
    </linearGradient>
    <filter id="soft"><feGaussianBlur stdDeviation="8"/></filter>
  </defs>

  <!-- dome glow -->
  <ellipse cx="120" cy="150" rx="92" ry="76" fill="url(#cg)" filter="url(#soft)"/>

  <!-- rails -->
  <g fill="none" stroke="url(#rail)" stroke-linecap="round">
    <path d="M44,168 A96,96 0 0 1 196,168" stroke-width="1.6"/>
    <path d="M56,162 A84,84 0 0 1 184,162" stroke-width="1.35"/>
    <path d="M72,156 A68,68 0 0 1 168,156" stroke-width="1.15"/>
  </g>

  <!-- L-brackets where you circled -->
  <g stroke="rgba(155,183,255,.40)" stroke-width="1.6" stroke-linecap="round">
    <!-- left -->
    <path d="M92 138 v10 h12" />
    <!-- right (mirror) -->
    <path d="M148 138 v10 h-12" />
  </g>

  <!-- detections -->
  <g fill="#E6C36B">
    <circle cx="100" cy="156" r="4"/>
    <circle cx="124" cy="150" r="3.6"/>
    <circle cx="156" cy="166" r="4"/>
  </g>
  <circle cx="124" cy="150" r="8" fill="none" stroke="#E6C36B" stroke-opacity=".45"/>

  <!-- framed chips (thin capsule, no fill) -->
  <g font-family="'Plus Jakarta Sans', Inter, system-ui" font-size="11" fill="#CFE2FF" stroke="rgba(155,183,255,.28)">
    <!-- left chip -->
    <g transform="translate(34,126)">
      <rect x="0" y="0" width="88" height="22" rx="11" fill="none"/>
      <text x="44" y="15" text-anchor="middle">
        web · <tspan fill="#E6C36B">24s</tspan>
      </text>
    </g>
    <!-- right chip -->
    <g transform="translate(138,126)">
      <rect x="0" y="0" width="90" height="22" rx="11" fill="none"/>
      <text x="45" y="15" text-anchor="middle">
        market · <tspan fill="#E6C36B">3m</tspan>
      </text>
    </g>
  </g>
</svg>