<svg width="240" height="240" viewBox="0 0 240 240" xmlns="http://www.w3.org/2000/svg">
  <defs>
    <radialGradient id="ring" cx="50%" cy="50%" r="50%">
      <stop offset="0" stop-color="#9BB7FF" stop-opacity=".70"/>
      <stop offset="1" stop-color="#4C6FAE" stop-opacity=".15"/>
    </radialGradient>
    <linearGradient id="sweep" x1="0" y1="0" x2="1" y2="0">
      <stop offset="0" stop-color="#9BB7FF" stop-opacity=".85"/>
      <stop offset=".9" stop-color="#9BB7FF" stop-opacity="0"/>
    </linearGradient>
    <filter id="soft" x="-50%" y="-50%" width="200%" height="200%">
      <feGaussianBlur stdDeviation="8"/>
    </filter>
  </defs>

  <!-- Radar @ center -->
  <g transform="translate(120,120)">
    <!-- rings -->
    <circle r="100" fill="none" stroke="url(#ring)" stroke-width="1.4"/>
    <circle r="70"  fill="none" stroke="url(#ring)" stroke-width="1.2"/>
    <circle r="40"  fill="none" stroke="url(#ring)" stroke-width="1"/>

    <!-- static sweep wedge -->
    <path d="M0,0 L0,-100 A100,100 0 0 1 86.6,-50 Z"
          fill="url(#sweep)" opacity=".60" filter="url(#soft)"/>

    <!-- blips (static). Increase r= to make them larger -->
    <g fill="#E6C36B">
      <circle cx="-32" cy="-58" r="4"/>
      <circle cx="22"  cy="-28" r="3"/>
      <circle cx="54"  cy="36"  r="4"/>
      <circle cx="-58" cy="14"  r="3"/>
    </g>
    <g stroke="#E6C36B" stroke-opacity=".50" fill="none">
      <circle cx="-32" cy="-58" r="8"/>
      <circle cx="54"  cy="36"  r="8"/>
    </g>

    <!-- short tying arc toward the pill to feel embedded -->
    <path d="M 28,30 A 60,60 0 0 1 46,16"
          fill="none" stroke="rgba(155,183,255,.55)" stroke-width="1"/>

    <!-- CONTAINED PILL (static, inside outer ring) -->
    <g transform="translate(46,16)">
      <!-- glassy lozenge -->
      <rect x="-48" y="-12" width="96" height="24" rx="10"
            fill="rgba(12,18,28,.38)" stroke="rgba(255,255,255,.14)" stroke-width="1"/>

      <!-- tiny “clock” gauge (static partial arc, no animation) -->
      <g transform="translate(-32,0)">
        <circle r="8.5" fill="none" stroke="rgba(155,183,255,.22)" stroke-width="2"/>
        <!-- 60% arc to imply progress, but static -->
        <path d="M -8.5,0
                 A 8.5,8.5 0 0 1 8.5,0"
              fill="none" stroke="rgba(155,183,255,.95)" stroke-width="2" stroke-linecap="round"/>
      </g>

      <!-- label -->
      <text x="-16" y="4"
            font-family="Inter, system-ui, -apple-system, Segoe UI, Roboto, Arial"
            font-size="11" fill="#CFE2FF" letter-spacing=".2px">continuous · 30s</text>
    </g>
  </g>
</svg>