<svg width="240" height="240" viewBox="0 0 240 240" xmlns="http://www.w3.org/2000/svg">
  <defs>
    <radialGradient id="cg" cx="50%" cy="55%" r="58%">
      <stop offset="0" stop-color="#6FA6FF" stop-opacity=".62"/>
      <stop offset=".6" stop-color="#2A7FF0" stop-opacity=".20"/>
      <stop offset="1" stop-color="#1B2A44" stop-opacity="0"/>
    </radialGradient>
    <linearGradient id="rail" x1="0" y1="0" x2="1" y2="0">
      <stop offset="0" stop-color="#9BB7FF" stop-opacity=".9"/>
      <stop offset="1" stop-color="#4C6FAE" stop-opacity=".3"/>
    </linearGradient>
    <linearGradient id="mesh" x1="0" y1="0" x2="1" y2="1">
      <stop offset="0" stop-color="#9BB7FF" stop-opacity=".18"/>
      <stop offset="1" stop-color="#4C6FAE" stop-opacity=".08"/>
    </linearGradient>
    <filter id="blur" x="-50%" y="-50%" width="200%" height="200%"><feGaussianBlur stdDeviation="8"/></filter>
  </defs>

  <!-- glow -->
  <ellipse cx="120" cy="130" rx="84" ry="72" fill="url(#cg)" filter="url(#blur)"/>

  <!-- faint mesh field -->
  <g stroke="url(#mesh)" stroke-width="1" opacity=".5">
    <path d="M60,120 H180"/>
    <path d="M60,136 H180"/>
    <path d="M60,152 H180"/>
    <path d="M100,100 V172"/>
    <path d="M140,100 V172"/>
  </g>

  <!-- rails (add one extra) -->
  <g fill="none" stroke="url(#rail)" stroke-linecap="round">
    <path d="M44,156 A92,92 0 0 1 196,156" stroke-width="1.6"/>
    <path d="M50,150 A86,86 0 0 1 190,150" stroke-width="1.6"/>
    <path d="M64,144 A72,72 0 0 1 176,144" stroke-width="1.3"/>
    <path d="M80,138 A56,56 0 0 1 160,138" stroke-width="1.1"/>
  </g>

  <!-- detections -->
  <g fill="#E6C36B">
    <circle cx="96"  cy="142" r="4"/>
    <circle cx="148" cy="150" r="3"/>
    <circle cx="128" cy="128" r="3.6"/>
  </g>

  <!-- highlight + triangulation toward the strongest blip (128,128) -->
  <g stroke="#E6C36B" fill="none" stroke-opacity=".5">
    <circle cx="128" cy="128" r="8"/>
  </g>
  <g stroke="url(#rail)" stroke-width="1" stroke-dasharray="3 3" opacity=".9">
    <path d="M128,128 L160,138"/>
    <path d="M128,128 L148,150"/>
    <path d="M128,128 L96,142"/>
  </g>
</svg>